<?xml version="1.0" encoding="UTF-8" standalone="no"?>
<!-- Created with Inkscape (http://www.inkscape.org/) -->

<svg
   width="160"
   height="160"
   viewBox="0 0 42.333332 42.333335"
   version="1.1"
   id="svg47300"
   inkscape:version="1.1.2 (b8e25be833, 2022-02-05)"
   sodipodi:docname="logo_vertical_solo.svg"
   xmlns:inkscape="http://www.inkscape.org/namespaces/inkscape"
   xmlns:sodipodi="http://sodipodi.sourceforge.net/DTD/sodipodi-0.dtd"
   xmlns="http://www.w3.org/2000/svg"
   xmlns:svg="http://www.w3.org/2000/svg">
  <sodipodi:namedview
     id="namedview47302"
     pagecolor="#ffffff"
     bordercolor="#666666"
     borderopacity="1.0"
     inkscape:pageshadow="2"
     inkscape:pageopacity="0.0"
     inkscape:pagecheckerboard="0"
     inkscape:document-units="mm"
     showgrid="false"
     units="px"
     inkscape:zoom="1.4805976"
     inkscape:cx="23.301401"
     inkscape:cy="130.35277"
     inkscape:window-width="1920"
     inkscape:window-height="1017"
     inkscape:window-x="-8"
     inkscape:window-y="-8"
     inkscape:window-maximized="1"
     inkscape:current-layer="layer1" />
  <defs
     id="defs47297" />
  <g
     inkscape:label="Capa 1"
     inkscape:groupmode="layer"
     id="layer1">
    <g
       id="g15304-4-1-2-3-5"
       transform="matrix(2.0937065,0,0,2.0915088,-73.547221,-70.67897)">
      <g
         aria-label="A"
         id="text21841-5-6-0-4-1-4"
         style="font-size:9.87778px;line-height:1.25;text-align:center;text-anchor:middle;fill:#4d4d4d;fill-opacity:1;stroke:#b9f6ca;stroke-width:0.1;stroke-miterlimit:4;stroke-dasharray:none;stroke-opacity:1"
         transform="matrix(1.2245902,0,0,1.2245902,-10.741903,3.5886528)">
        <path
           d="m 51.596275,36.430954 h -1.017682 l -0.704177,-2.001601 h -3.106099 l -0.704178,2.001601 h -0.96945 l 2.614139,-7.181648 h 1.273308 z M 49.580204,33.60942 48.321366,30.083709 47.057705,33.60942 Z"
           id="path25797-7-9-7-0-5-5"
           style="fill:#4d4d4d;fill-opacity:1;stroke:#b9f6ca;stroke-width:0.1;stroke-miterlimit:4;stroke-dasharray:none;stroke-opacity:1" />
      </g>
      <g
         aria-label="A"
         id="text21841-4-9-1-8-6"
         style="font-size:9.87778px;line-height:1.25;text-align:center;text-anchor:middle;fill:#18ffff;fill-opacity:1;stroke:#b9f6ca;stroke-width:0.1;stroke-miterlimit:4;stroke-dasharray:none;stroke-opacity:1"
         transform="matrix(1.2843502,0,0,1.2843502,-14.502191,2.0434848)">
        <path
           d="m 51.596275,36.430954 h -1.017682 l -0.704177,-2.001601 h -3.106099 l -0.704178,2.001601 h -0.96945 l 2.614139,-7.181648 h 1.273308 z M 49.580204,33.60942 48.321366,30.083709 47.057705,33.60942 Z"
           id="path25797-5-7-8-4-7"
           style="fill:#18ffff;fill-opacity:1;stroke:#b9f6ca;stroke-width:0.1;stroke-miterlimit:4;stroke-dasharray:none;stroke-opacity:1" />
      </g>
      <g
         id="g29626-3-4-6-1-2-7"
         style="fill:#4d4d4d;fill-opacity:1;stroke:#b9f6ca;stroke-width:0.1;stroke-miterlimit:4;stroke-dasharray:none;stroke-opacity:1"
         transform="matrix(1.1461728,0,0,1.1461728,-7.5861064,6.4963929)">
        <g
           aria-label="C"
           id="text23585-5-6-5-0-0-5"
           style="font-size:12.7px;line-height:1.25;text-align:center;text-anchor:middle;fill:#4d4d4d;fill-opacity:1;stroke:#b9f6ca;stroke-width:0.1;stroke-miterlimit:4;stroke-dasharray:none;stroke-opacity:1">
          <path
             d="m 51.771677,37.289111 c 0,0 -8.130843,-0.0026 -8.218163,-0.0026 -0.08732,-2.8e-5 -0.99774,-0.56761 -1.402883,-0.968619 -0.396875,-0.392741 -0.706934,-0.890901 -0.930176,-1.494482 -0.223242,-0.607715 -0.334863,-1.312581 -0.334863,-2.1146 0,-0.760677 0.107487,-1.440738 0.322461,-2.040185 0.214974,-0.599447 0.525032,-1.105876 0.930175,-1.519287 0.392741,-0.401009 0.866098,-0.706934 1.420069,-0.917774 0.558105,-0.210839 1.176155,-0.316259 1.85415,-0.316259 0.496094,0 4.971273,-0.004 5.500439,-0.004 l 10e-7,1.028991 -5.581052,0.02301 c -0.467151,0.0019 -0.888835,0.07648 -1.265039,0.229443 -0.372071,0.148828 -0.704867,0.382405 -0.998389,0.700732 -0.285254,0.310059 -0.508496,0.7028 -0.669726,1.178223 -0.157097,0.471289 -0.235645,1.016992 -0.235645,1.637109 0,0.649056 0.08682,1.207162 0.260449,1.674317 0.177767,0.467155 0.405144,0.847493 0.682129,1.141015 0.289388,0.305925 0.996845,0.917011 1.258336,0.917064 l 7.407726,0.0015 z"
             id="path24760-4-9-3-5-6-9"
             sodipodi:nodetypes="czccssccsccscccsccscc"
             style="fill:#4d4d4d;fill-opacity:1;stroke:#b9f6ca;stroke-width:0.1;stroke-miterlimit:4;stroke-dasharray:none;stroke-opacity:1" />
        </g>
        <path
           style="fill:#4d4d4d;fill-opacity:1;stroke:#b9f6ca;stroke-width:0.1;stroke-linecap:butt;stroke-linejoin:miter;stroke-miterlimit:4;stroke-dasharray:none;stroke-opacity:1"
           d="m 42.167971,31.161956 -0.467722,1.064067 h 4.522345 v -1.064067 z"
           id="path27812-7-7-8-0-1-5"
           sodipodi:nodetypes="ccccc" />
      </g>
      <g
         id="g29626-6-3-7-6-8"
         style="fill:#00e676;fill-opacity:1;stroke:#b9f6ca;stroke-width:0.1;stroke-miterlimit:4;stroke-dasharray:none;stroke-opacity:1"
         transform="matrix(1.2843502,0,0,1.2843502,-14.502191,2.0434848)">
        <g
           aria-label="C"
           id="text23585-2-3-9-5-3"
           style="font-size:12.7px;line-height:1.25;text-align:center;text-anchor:middle;fill:#00e676;fill-opacity:1;stroke:#b9f6ca;stroke-width:0.1;stroke-miterlimit:4;stroke-dasharray:none;stroke-opacity:1">
          <path
             d="m 51.771677,37.289111 c 0,0 -8.130843,-0.0026 -8.218163,-0.0026 -0.08732,-2.8e-5 -0.99774,-0.56761 -1.402883,-0.968619 -0.396875,-0.392741 -0.706934,-0.890901 -0.930176,-1.494482 -0.223242,-0.607715 -0.334863,-1.312581 -0.334863,-2.1146 0,-0.760677 0.107487,-1.440738 0.322461,-2.040185 0.214974,-0.599447 0.525032,-1.105876 0.930175,-1.519287 0.392741,-0.401009 0.866098,-0.706934 1.420069,-0.917774 0.558105,-0.210839 1.176155,-0.316259 1.85415,-0.316259 0.496094,0 4.971273,-0.004 5.500439,-0.004 l 10e-7,1.028991 -5.581052,0.02301 c -0.467151,0.0019 -0.888835,0.07648 -1.265039,0.229443 -0.372071,0.148828 -0.704867,0.382405 -0.998389,0.700732 -0.285254,0.310059 -0.508496,0.7028 -0.669726,1.178223 -0.157097,0.471289 -0.235645,1.016992 -0.235645,1.637109 0,0.649056 0.08682,1.207162 0.260449,1.674317 0.177767,0.467155 0.405144,0.847493 0.682129,1.141015 0.289388,0.305925 0.996845,0.917011 1.258336,0.917064 l 7.407726,0.0015 z"
             id="path24760-6-0-7-7-5"
             sodipodi:nodetypes="czccssccsccscccsccscc"
             style="fill:#00e676;fill-opacity:1;stroke:#b9f6ca;stroke-width:0.1;stroke-miterlimit:4;stroke-dasharray:none;stroke-opacity:1" />
        </g>
        <path
           style="fill:#00e676;fill-opacity:1;stroke:#b9f6ca;stroke-width:0.1;stroke-linecap:butt;stroke-linejoin:miter;stroke-miterlimit:4;stroke-dasharray:none;stroke-opacity:1"
           d="m 42.167971,31.161956 -0.467722,1.064067 h 4.522345 v -1.064067 z"
           id="path27812-0-5-4-4-1"
           sodipodi:nodetypes="ccccc" />
      </g>
    </g>
  </g>
</svg>
