<?xml version="1.0" encoding="UTF-8" standalone="no"?>
<!-- Created with Inkscape (http://www.inkscape.org/) -->

<svg
   width="160"
   height="160"
   viewBox="0 0 42.333331 42.333334"
   version="1.1"
   id="svg47038"
   inkscape:version="1.1.2 (b8e25be833, 2022-02-05)"
   sodipodi:docname="logo_vertical_texto.svg"
   inkscape:export-filename="C:\xampp\htdocs\PROYECTOS_OTROS\asesoriafiscal\assets\img\footer_logo_vertical.png"
   inkscape:export-xdpi="600"
   inkscape:export-ydpi="600"
   xmlns:inkscape="http://www.inkscape.org/namespaces/inkscape"
   xmlns:sodipodi="http://sodipodi.sourceforge.net/DTD/sodipodi-0.dtd"
   xmlns="http://www.w3.org/2000/svg"
   xmlns:svg="http://www.w3.org/2000/svg">
  <sodipodi:namedview
     id="namedview47040"
     pagecolor="#ffffff"
     bordercolor="#666666"
     borderopacity="1.0"
     inkscape:pageshadow="2"
     inkscape:pageopacity="0.0"
     inkscape:pagecheckerboard="0"
     inkscape:document-units="mm"
     showgrid="false"
     units="px"
     inkscape:zoom="4.1877624"
     inkscape:cx="80.830756"
     inkscape:cy="73.786421"
     inkscape:window-width="1280"
     inkscape:window-height="961"
     inkscape:window-x="-8"
     inkscape:window-y="-8"
     inkscape:window-maximized="1"
     inkscape:current-layer="layer1" />
  <defs
     id="defs47035" />
  <g
     inkscape:label="Capa 1"
     inkscape:groupmode="layer"
     id="layer1">
    <g
       id="g1746">
      <g
         aria-label="A"
         id="text21841-5-6-0"
         style="font-size:9.87778px;line-height:1.25;text-align:center;text-anchor:middle;fill:#4d4d4d;fill-opacity:1;stroke:#b9f6ca;stroke-width:0.1;stroke-miterlimit:4;stroke-dasharray:none;stroke-opacity:1"
         transform="matrix(2.5641944,0,0,2.5641944,-96.049589,-67.464142)">
        <path
           d="m 51.596275,36.430954 h -1.017682 l -0.704177,-2.001601 h -3.106099 l -0.704178,2.001601 h -0.96945 l 2.614139,-7.181648 h 1.273308 z M 49.580204,33.60942 48.321366,30.083709 47.057705,33.60942 Z"
           id="path25797-7-9-7"
           style="fill:#4d4d4d;fill-opacity:1;stroke:#b9f6ca;stroke-width:0.1;stroke-miterlimit:4;stroke-dasharray:none;stroke-opacity:1" />
      </g>
      <g
         aria-label="A"
         id="text21841-4-9"
         style="font-size:9.87778px;line-height:1.25;text-align:center;text-anchor:middle;fill:#18ffff;fill-opacity:1;stroke:#b9f6ca;stroke-width:0.1;stroke-miterlimit:4;stroke-dasharray:none;stroke-opacity:1"
         transform="matrix(2.6893271,0,0,2.6893271,-103.92333,-70.6996)">
        <path
           d="m 51.596275,36.430954 h -1.017682 l -0.704177,-2.001601 h -3.106099 l -0.704178,2.001601 h -0.96945 l 2.614139,-7.181648 h 1.273308 z M 49.580204,33.60942 48.321366,30.083709 47.057705,33.60942 Z"
           id="path25797-5-7"
           style="fill:#18ffff;fill-opacity:1;stroke:#b9f6ca;stroke-width:0.1;stroke-miterlimit:4;stroke-dasharray:none;stroke-opacity:1" />
      </g>
    </g>
    <g
       id="g29626-3-4-6"
       style="fill:#4d4d4d;fill-opacity:1;stroke:#b9f6ca;stroke-width:0.1;stroke-miterlimit:4;stroke-dasharray:none;stroke-opacity:1"
       transform="matrix(2.3999946,0,0,2.3999946,-89.441602,-61.375565)">
      <g
         aria-label="C"
         id="text23585-5-6-5"
         style="font-size:12.7px;line-height:1.25;text-align:center;text-anchor:middle;fill:#4d4d4d;fill-opacity:1;stroke:#b9f6ca;stroke-width:0.1;stroke-miterlimit:4;stroke-dasharray:none;stroke-opacity:1">
        <path
           d="m 51.771677,37.289111 c 0,0 -8.130843,-0.0026 -8.218163,-0.0026 -0.08732,-2.8e-5 -0.99774,-0.56761 -1.402883,-0.968619 -0.396875,-0.392741 -0.706934,-0.890901 -0.930176,-1.494482 -0.223242,-0.607715 -0.334863,-1.312581 -0.334863,-2.1146 0,-0.760677 0.107487,-1.440738 0.322461,-2.040185 0.214974,-0.599447 0.525032,-1.105876 0.930175,-1.519287 0.392741,-0.401009 0.866098,-0.706934 1.420069,-0.917774 0.558105,-0.210839 1.176155,-0.316259 1.85415,-0.316259 0.496094,0 4.971273,-0.004 5.500439,-0.004 l 10e-7,1.028991 -5.581052,0.02301 c -0.467151,0.0019 -0.888835,0.07648 -1.265039,0.229443 -0.372071,0.148828 -0.704867,0.382405 -0.998389,0.700732 -0.285254,0.310059 -0.508496,0.7028 -0.669726,1.178223 -0.157097,0.471289 -0.235645,1.016992 -0.235645,1.637109 0,0.649056 0.08682,1.207162 0.260449,1.674317 0.177767,0.467155 0.405144,0.847493 0.682129,1.141015 0.289388,0.305925 0.996845,0.917011 1.258336,0.917064 l 7.407726,0.0015 z"
           id="path24760-4-9-3"
           sodipodi:nodetypes="czccssccsccscccsccscc"
           style="fill:#4d4d4d;fill-opacity:1;stroke:#b9f6ca;stroke-width:0.1;stroke-miterlimit:4;stroke-dasharray:none;stroke-opacity:1" />
      </g>
      <path
         style="fill:#4d4d4d;fill-opacity:1;stroke:#b9f6ca;stroke-width:0.1;stroke-linecap:butt;stroke-linejoin:miter;stroke-miterlimit:4;stroke-dasharray:none;stroke-opacity:1"
         d="m 42.167971,31.161956 -0.467722,1.064067 h 4.522345 v -1.064067 z"
         id="path27812-7-7-8"
         sodipodi:nodetypes="ccccc" />
    </g>
    <g
       id="g29626-6-3"
       style="fill:#00e676;fill-opacity:1;stroke:#b9f6ca;stroke-width:0.1;stroke-miterlimit:4;stroke-dasharray:none;stroke-opacity:1"
       transform="matrix(2.6893271,0,0,2.6893271,-103.92333,-70.6996)">
      <g
         aria-label="C"
         id="text23585-2-3"
         style="font-size:12.7px;line-height:1.25;text-align:center;text-anchor:middle;fill:#00e676;fill-opacity:1;stroke:#b9f6ca;stroke-width:0.1;stroke-miterlimit:4;stroke-dasharray:none;stroke-opacity:1">
        <path
           d="m 51.771677,37.289111 c 0,0 -8.130843,-0.0026 -8.218163,-0.0026 -0.08732,-2.8e-5 -0.99774,-0.56761 -1.402883,-0.968619 -0.396875,-0.392741 -0.706934,-0.890901 -0.930176,-1.494482 -0.223242,-0.607715 -0.334863,-1.312581 -0.334863,-2.1146 0,-0.760677 0.107487,-1.440738 0.322461,-2.040185 0.214974,-0.599447 0.525032,-1.105876 0.930175,-1.519287 0.392741,-0.401009 0.866098,-0.706934 1.420069,-0.917774 0.558105,-0.210839 1.176155,-0.316259 1.85415,-0.316259 0.496094,0 4.971273,-0.004 5.500439,-0.004 l 10e-7,1.028991 -5.581052,0.02301 c -0.467151,0.0019 -0.888835,0.07648 -1.265039,0.229443 -0.372071,0.148828 -0.704867,0.382405 -0.998389,0.700732 -0.285254,0.310059 -0.508496,0.7028 -0.669726,1.178223 -0.157097,0.471289 -0.235645,1.016992 -0.235645,1.637109 0,0.649056 0.08682,1.207162 0.260449,1.674317 0.177767,0.467155 0.405144,0.847493 0.682129,1.141015 0.289388,0.305925 0.996845,0.917011 1.258336,0.917064 l 7.407726,0.0015 z"
           id="path24760-6-0"
           sodipodi:nodetypes="czccssccsccscccsccscc"
           style="fill:#00e676;fill-opacity:1;stroke:#b9f6ca;stroke-width:0.1;stroke-miterlimit:4;stroke-dasharray:none;stroke-opacity:1" />
      </g>
      <path
         style="fill:#00e676;fill-opacity:1;stroke:#b9f6ca;stroke-width:0.1;stroke-linecap:butt;stroke-linejoin:miter;stroke-miterlimit:4;stroke-dasharray:none;stroke-opacity:1"
         d="m 42.167971,31.161956 -0.467722,1.064067 h 4.522345 v -1.064067 z"
         id="path27812-0-5"
         sodipodi:nodetypes="ccccc" />
    </g>
    <text
       xml:space="preserve"
       style="font-style:normal;font-variant:normal;font-weight:normal;font-stretch:normal;font-size:3.45576px;line-height:1.25;font-family:'Franklin Gothic Demi';-inkscape-font-specification:'Franklin Gothic Demi';text-align:center;text-anchor:middle;fill:#006064;fill-opacity:1;stroke-width:0.323977"
       x="21.591887"
       y="33.741207"
       id="text2613-5-6"><tspan
         sodipodi:role="line"
         id="tspan2611-1-7"
         style="font-style:italic;font-variant:normal;font-weight:normal;font-stretch:normal;font-family:'Franklin Gothic Demi';-inkscape-font-specification:'Franklin Gothic Demi Italic';fill:#ffffff;fill-opacity:1;stroke-width:0.323977"
         x="21.591887"
         y="33.741207">Asesoria contable, Fiscal y </tspan><tspan
         sodipodi:role="line"
         style="font-style:italic;font-variant:normal;font-weight:normal;font-stretch:normal;font-family:'Franklin Gothic Demi';-inkscape-font-specification:'Franklin Gothic Demi Italic';fill:#ffffff;fill-opacity:1;stroke-width:0.323977"
         x="21.591887"
         y="38.060905"
         id="tspan20067-8">Administrativa</tspan></text>
  </g>
</svg>
